<svg width="173" height="56" viewBox="0 0 173 56" fill="none" xmlns="http://www.w3.org/2000/svg">
<g clip-path="url(#clip0_2420_25)">
<path d="M71.2442 25.1211V7.00415H75.5099V21.6774H83.1309V25.1211H71.2442Z" fill="#140153"/>
<path d="M71.2442 25.1211V7.00415H75.5099V21.6774H83.1309V25.1211H71.2442Z" fill="#310677"/>
<path d="M91.7871 25.5329C91.0239 25.5402 90.2623 25.4607 89.517 25.2958C88.8499 25.1662 88.2143 24.9077 87.6461 24.5347C87.1061 24.1805 86.6745 23.6839 86.3988 23.0998C86.0777 22.3871 85.9241 21.6103 85.9498 20.8289C85.9326 20.0576 86.1084 19.2941 86.4612 18.608C86.811 17.9637 87.3572 17.4479 88.0203 17.1357C88.8555 16.7655 89.7641 16.5905 90.677 16.6241C91.2642 16.6227 91.8497 16.6854 92.4232 16.8113C92.9438 16.925 93.45 17.0966 93.9324 17.3229C94.319 17.5064 94.6762 17.746 94.9927 18.0341L95.1548 19.993C94.7693 19.7536 94.3483 19.5767 93.9075 19.4689C93.3811 19.3395 92.8405 19.2767 92.2985 19.2818C91.6457 19.2357 90.9931 19.3741 90.4151 19.681C90.217 19.8197 90.0586 20.0078 89.9557 20.2268C89.8529 20.4457 89.8091 20.6877 89.8289 20.9288C89.8284 21.2586 89.9285 21.5806 90.1157 21.8521C90.3176 22.1212 90.5834 22.3356 90.8891 22.4759C91.208 22.6143 91.5517 22.6864 91.8994 22.6881C92.5329 22.7181 93.1675 22.6551 93.7828 22.5009C93.9473 22.4556 94.0914 22.3555 94.1912 22.217C94.291 22.0786 94.3405 21.9102 94.3316 21.7398V16.674C94.3625 16.3308 94.3067 15.9853 94.1694 15.6692C94.0321 15.3531 93.8177 15.0765 93.5458 14.8648C92.8896 14.4552 92.1227 14.2591 91.3506 14.3034C90.5587 14.311 89.774 14.4545 89.0306 14.7276C88.3419 14.9597 87.6968 15.3055 87.1222 15.7507V12.1698C87.7783 11.7884 88.4893 11.5106 89.2302 11.3463C90.2868 11.085 91.3723 10.9592 92.4606 10.972C92.9279 10.9772 93.3944 11.0105 93.8576 11.0718C94.3769 11.1535 94.8867 11.2873 95.3793 11.471C95.8932 11.6619 96.3701 11.9406 96.7887 12.2945C97.2356 12.6784 97.5932 13.1554 97.8365 13.692C98.119 14.3538 98.2552 15.0688 98.2356 15.7882V22.2888C98.2464 22.6396 98.1831 22.9887 98.0498 23.3133C97.9166 23.638 97.7164 23.9309 97.4623 24.1728C96.8354 24.7093 96.0782 25.0708 95.267 25.2209C94.1218 25.4509 92.955 25.5554 91.7871 25.5329Z" fill="#140153"/>
<path d="M91.7871 25.5329C91.0239 25.5402 90.2623 25.4607 89.517 25.2958C88.8499 25.1662 88.2143 24.9077 87.6461 24.5347C87.1061 24.1805 86.6745 23.6839 86.3988 23.0998C86.0777 22.3871 85.9241 21.6103 85.9498 20.8289C85.9326 20.0576 86.1084 19.2941 86.4612 18.608C86.811 17.9637 87.3572 17.4479 88.0203 17.1357C88.8555 16.7655 89.7641 16.5905 90.677 16.6241C91.2642 16.6227 91.8497 16.6854 92.4232 16.8113C92.9438 16.925 93.45 17.0966 93.9324 17.3229C94.319 17.5064 94.6762 17.746 94.9927 18.0341L95.1548 19.993C94.7693 19.7536 94.3483 19.5767 93.9075 19.4689C93.3811 19.3395 92.8405 19.2767 92.2985 19.2818C91.6457 19.2357 90.9931 19.3741 90.4151 19.681C90.217 19.8197 90.0586 20.0078 89.9557 20.2268C89.8529 20.4457 89.8091 20.6877 89.8289 20.9288C89.8284 21.2586 89.9285 21.5806 90.1157 21.8521C90.3176 22.1212 90.5834 22.3356 90.8891 22.4759C91.208 22.6143 91.5517 22.6864 91.8994 22.6881C92.5329 22.7181 93.1675 22.6551 93.7828 22.5009C93.9473 22.4556 94.0914 22.3555 94.1912 22.217C94.291 22.0786 94.3405 21.9102 94.3316 21.7398V16.674C94.3625 16.3308 94.3067 15.9853 94.1694 15.6692C94.0321 15.3531 93.8177 15.0765 93.5458 14.8648C92.8896 14.4552 92.1227 14.2591 91.3506 14.3034C90.5587 14.311 89.774 14.4545 89.0306 14.7276C88.3419 14.9597 87.6968 15.3055 87.1222 15.7507V12.1698C87.7783 11.7884 88.4893 11.5106 89.2302 11.3463C90.2868 11.085 91.3723 10.9592 92.4606 10.972C92.9279 10.9772 93.3944 11.0105 93.8576 11.0718C94.3769 11.1535 94.8867 11.2873 95.3793 11.471C95.8932 11.6619 96.3701 11.9406 96.7887 12.2945C97.2356 12.6784 97.5932 13.1554 97.8365 13.692C98.119 14.3538 98.2552 15.0688 98.2356 15.7882V22.2888C98.2464 22.6396 98.1831 22.9887 98.0498 23.3133C97.9166 23.638 97.7164 23.9309 97.4623 24.1728C96.8354 24.7093 96.0782 25.0708 95.267 25.2209C94.1218 25.4509 92.955 25.5554 91.7871 25.5329Z" fill="#310677"/>
<path d="M115.012 15.8879V25.121H111.095V16.6989C111.098 16.3767 111.047 16.0563 110.945 15.7506C110.855 15.4728 110.706 15.2175 110.509 15.002C110.295 14.7726 110.024 14.6046 109.723 14.5154C109.321 14.382 108.899 14.3229 108.476 14.3407C108.1 14.3372 107.727 14.3876 107.366 14.4905C107.077 14.5659 106.797 14.6704 106.53 14.8024V25.121H102.651V12.544C103.056 12.3333 103.472 12.1459 103.898 11.9825C104.488 11.786 105.088 11.6194 105.694 11.4834C106.343 11.3462 106.942 11.2214 107.653 11.1341C108.255 11.0424 108.864 10.9965 109.474 10.9968C110.5 10.9716 111.523 11.1322 112.492 11.471C113.266 11.7539 113.918 12.2961 114.338 13.0057C114.81 13.8912 115.042 14.8848 115.012 15.8879ZM111.008 13.4673C111.606 12.9591 112.274 12.5389 112.991 12.2196C113.788 11.8382 114.625 11.5453 115.486 11.3462C116.268 11.1456 117.072 11.0409 117.88 11.0343C118.903 11.0089 119.921 11.1696 120.886 11.5084C121.662 11.7876 122.316 12.3308 122.732 13.0431C123.183 13.9345 123.393 14.9278 123.343 15.9253V25.1585H119.352V16.6989C119.355 16.3767 119.305 16.0563 119.202 15.7506C119.116 15.4735 118.972 15.2182 118.778 15.002C118.557 14.7753 118.283 14.6079 117.98 14.5154C117.579 14.3809 117.156 14.3217 116.733 14.3407C116.355 14.3328 115.98 14.392 115.623 14.5154C115.316 14.6056 115.032 14.7586 114.787 14.9646L111.008 13.4673Z" fill="#140153"/>
<path d="M115.012 15.8879V25.121H111.095V16.6989C111.098 16.3767 111.047 16.0563 110.945 15.7506C110.855 15.4728 110.706 15.2175 110.509 15.002C110.295 14.7726 110.024 14.6046 109.723 14.5154C109.321 14.382 108.899 14.3229 108.476 14.3407C108.1 14.3372 107.727 14.3876 107.366 14.4905C107.077 14.5659 106.797 14.6704 106.53 14.8024V25.121H102.651V12.544C103.056 12.3333 103.472 12.1459 103.898 11.9825C104.488 11.786 105.088 11.6194 105.694 11.4834C106.343 11.3462 106.942 11.2214 107.653 11.1341C108.255 11.0424 108.864 10.9965 109.474 10.9968C110.5 10.9716 111.523 11.1322 112.492 11.471C113.266 11.7539 113.918 12.2961 114.338 13.0057C114.81 13.8912 115.042 14.8848 115.012 15.8879ZM111.008 13.4673C111.606 12.9591 112.274 12.5389 112.991 12.2196C113.788 11.8382 114.625 11.5453 115.486 11.3462C116.268 11.1456 117.072 11.0409 117.88 11.0343C118.903 11.0089 119.921 11.1696 120.886 11.5084C121.662 11.7876 122.316 12.3308 122.732 13.0431C123.183 13.9345 123.393 14.9278 123.343 15.9253V25.1585H119.352V16.6989C119.355 16.3767 119.305 16.0563 119.202 15.7506C119.116 15.4735 118.972 15.2182 118.778 15.002C118.557 14.7753 118.283 14.6079 117.98 14.5154C117.579 14.3809 117.156 14.3217 116.733 14.3407C116.355 14.3328 115.98 14.392 115.623 14.5154C115.316 14.6056 115.032 14.7586 114.787 14.9646L111.008 13.4673Z" fill="#310677"/>
<path d="M133.796 25.5328C133.061 25.5331 132.328 25.4831 131.601 25.3831C130.921 25.2958 130.257 25.1109 129.63 24.8341C129.073 24.6015 128.587 24.2273 128.22 23.7486C127.846 23.2215 127.658 22.5852 127.684 21.9394V6.29297H131.526V13.7793L130.79 12.5316C131.13 12.1364 131.557 11.8248 132.037 11.6207C132.493 11.4232 132.97 11.2808 133.459 11.1965C133.869 11.1106 134.287 11.0647 134.706 11.0593C135.543 11.0042 136.381 11.1408 137.157 11.4587C137.933 11.7765 138.626 12.2672 139.184 12.8934C140.319 14.4418 140.867 16.3433 140.731 18.2586C140.761 19.4407 140.583 20.6189 140.207 21.7398C139.911 22.5783 139.416 23.3323 138.764 23.9366C138.112 24.541 137.323 24.9775 136.465 25.2084C135.596 25.4451 134.697 25.5544 133.796 25.5328ZM133.796 22.164C134.441 22.1951 135.08 22.0297 135.629 21.6898C136.09 21.3653 136.436 20.9019 136.615 20.3673C136.824 19.7486 136.925 19.0987 136.914 18.4458C136.949 17.5967 136.818 16.7489 136.527 15.9503C136.321 15.4019 135.94 14.9369 135.442 14.6277C134.967 14.3464 134.423 14.2037 133.871 14.216C133.48 14.2228 133.092 14.2688 132.711 14.3532C132.311 14.4342 131.927 14.5818 131.576 14.79V20.8788C131.567 21.018 131.589 21.1575 131.641 21.2871C131.692 21.4166 131.772 21.5329 131.875 21.6275C132.101 21.8284 132.377 21.9662 132.673 22.0267C133.024 22.1157 133.384 22.1618 133.746 22.164H133.796Z" fill="#140153"/>
<path d="M133.796 25.5328C133.061 25.5331 132.328 25.4831 131.601 25.3831C130.921 25.2958 130.257 25.1109 129.63 24.8341C129.073 24.6015 128.587 24.2273 128.22 23.7486C127.846 23.2215 127.658 22.5852 127.684 21.9394V6.29297H131.526V13.7793L130.79 12.5316C131.13 12.1364 131.557 11.8248 132.037 11.6207C132.493 11.4232 132.97 11.2808 133.459 11.1965C133.869 11.1106 134.287 11.0647 134.706 11.0593C135.543 11.0042 136.381 11.1408 137.157 11.4587C137.933 11.7765 138.626 12.2672 139.184 12.8934C140.319 14.4418 140.867 16.3433 140.731 18.2586C140.761 19.4407 140.583 20.6189 140.207 21.7398C139.911 22.5783 139.416 23.3323 138.764 23.9366C138.112 24.541 137.323 24.9775 136.465 25.2084C135.596 25.4451 134.697 25.5544 133.796 25.5328ZM133.796 22.164C134.441 22.1951 135.08 22.0297 135.629 21.6898C136.09 21.3653 136.436 20.9019 136.615 20.3673C136.824 19.7486 136.925 19.0987 136.914 18.4458C136.949 17.5967 136.818 16.7489 136.527 15.9503C136.321 15.4019 135.94 14.9369 135.442 14.6277C134.967 14.3464 134.423 14.2037 133.871 14.216C133.48 14.2228 133.092 14.2688 132.711 14.3532C132.311 14.4342 131.927 14.5818 131.576 14.79V20.8788C131.567 21.018 131.589 21.1575 131.641 21.2871C131.692 21.4166 131.772 21.5329 131.875 21.6275C132.101 21.8284 132.377 21.9662 132.673 22.0267C133.024 22.1157 133.384 22.1618 133.746 22.164H133.796Z" fill="#310677"/>
<path d="M150.809 25.5328C149.846 25.5374 148.886 25.42 147.953 25.1834C147.125 24.9618 146.357 24.5567 145.707 23.9981C145.034 23.3746 144.524 22.5947 144.223 21.7273C143.834 20.5748 143.652 19.3623 143.687 18.1463C143.578 16.2554 144.138 14.3864 145.271 12.8684C145.867 12.2026 146.607 11.6821 147.435 11.3469C148.263 11.0116 149.157 10.8706 150.048 10.9345C150.419 10.9402 150.79 10.9651 151.158 11.0093C151.643 11.0677 152.12 11.1807 152.58 11.3462C153.063 11.551 153.49 11.8675 153.827 12.2695L153.042 13.5173V5.71899H156.933V21.5401C156.945 22.1628 156.762 22.7737 156.409 23.2869C156.042 23.8061 155.56 24.2332 155 24.5346C154.376 24.8733 153.709 25.1252 153.017 25.2833C152.292 25.4496 151.552 25.5334 150.809 25.5328ZM150.971 22.139C151.495 22.1602 152.018 22.0709 152.505 21.877C152.674 21.8273 152.822 21.7258 152.929 21.5869C153.037 21.4481 153.098 21.2789 153.104 21.1034V14.7774C152.786 14.595 152.447 14.4525 152.094 14.3532C151.753 14.2563 151.4 14.2059 151.046 14.2035C150.406 14.1828 149.77 14.311 149.187 14.5778C148.671 14.847 148.265 15.2884 148.04 15.8255C147.75 16.594 147.619 17.4131 147.653 18.2336C147.639 18.9336 147.749 19.6306 147.978 20.2924C148.163 20.8409 148.528 21.3111 149.013 21.6274C149.588 21.9737 150.25 22.1509 150.921 22.139H150.971Z" fill="#140153"/>
<path d="M150.809 25.5328C149.846 25.5374 148.886 25.42 147.953 25.1834C147.125 24.9618 146.357 24.5567 145.707 23.9981C145.034 23.3746 144.524 22.5947 144.223 21.7273C143.834 20.5748 143.652 19.3623 143.687 18.1463C143.578 16.2554 144.138 14.3864 145.271 12.8684C145.867 12.2026 146.607 11.6821 147.435 11.3469C148.263 11.0116 149.157 10.8706 150.048 10.9345C150.419 10.9402 150.79 10.9651 151.158 11.0093C151.643 11.0677 152.12 11.1807 152.58 11.3462C153.063 11.551 153.49 11.8675 153.827 12.2695L153.042 13.5173V5.71899H156.933V21.5401C156.945 22.1628 156.762 22.7737 156.409 23.2869C156.042 23.8061 155.56 24.2332 155 24.5346C154.376 24.8733 153.709 25.1252 153.017 25.2833C152.292 25.4496 151.552 25.5334 150.809 25.5328ZM150.971 22.139C151.495 22.1602 152.018 22.0709 152.505 21.877C152.674 21.8273 152.822 21.7258 152.929 21.5869C153.037 21.4481 153.098 21.2789 153.104 21.1034V14.7774C152.786 14.595 152.447 14.4525 152.094 14.3532C151.753 14.2563 151.4 14.2059 151.046 14.2035C150.406 14.1828 149.77 14.311 149.187 14.5778C148.671 14.847 148.265 15.2884 148.04 15.8255C147.75 16.594 147.619 17.4131 147.653 18.2336C147.639 18.9336 147.749 19.6306 147.978 20.2924C148.163 20.8409 148.528 21.3111 149.013 21.6274C149.588 21.9737 150.25 22.1509 150.921 22.139H150.971Z" fill="#310677"/>
<path d="M166.537 25.5329C165.774 25.5389 165.013 25.4594 164.267 25.2958C163.6 25.1662 162.964 24.9077 162.396 24.5347C161.856 24.1805 161.425 23.6839 161.149 23.0998C160.828 22.3871 160.674 21.6103 160.7 20.829C160.683 20.0576 160.858 19.2941 161.211 18.608C161.566 17.9628 162.116 17.4472 162.783 17.1357C163.617 16.7629 164.526 16.5878 165.44 16.6241C166.023 16.6227 166.604 16.6855 167.173 16.8113C167.694 16.925 168.2 17.0966 168.683 17.3229C169.073 17.5066 169.434 17.7461 169.755 18.0341L169.905 19.993C169.519 19.7536 169.098 19.5767 168.658 19.4689C168.14 19.34 167.607 19.2772 167.074 19.2818C166.425 19.2354 165.776 19.3738 165.203 19.681C165.001 19.8173 164.84 20.0047 164.734 20.2239C164.629 20.4431 164.584 20.6864 164.604 20.9288C164.603 21.2586 164.704 21.5806 164.891 21.8521C165.097 22.1217 165.367 22.336 165.677 22.4759C165.996 22.6143 166.339 22.6864 166.687 22.6881C167.32 22.7181 167.955 22.6551 168.57 22.5009C168.732 22.4533 168.874 22.3521 168.971 22.2139C169.069 22.0757 169.116 21.9086 169.107 21.7398V16.674C169.137 16.3321 169.082 15.988 168.947 15.6724C168.812 15.3568 168.601 15.0794 168.333 14.8648C167.677 14.4552 166.91 14.2591 166.138 14.3034C165.342 14.3108 164.553 14.4543 163.806 14.7276C163.117 14.9597 162.472 15.3055 161.897 15.7507V12.1698C162.558 11.7888 163.273 11.5111 164.018 11.3463C165.07 11.085 166.151 10.9592 167.236 10.972C167.703 10.9772 168.169 11.0105 168.633 11.0718C169.152 11.152 169.662 11.2858 170.154 11.471C170.67 11.6591 171.147 11.938 171.564 12.2945C172.008 12.6727 172.362 13.146 172.599 13.6795C172.882 14.3413 173.018 15.0563 172.998 15.7757V22.2763C173.011 22.6262 172.949 22.9747 172.818 23.2993C172.687 23.6239 172.489 23.9173 172.237 24.1604C171.607 24.6919 170.851 25.0528 170.042 25.2085C168.889 25.4435 167.714 25.5523 166.537 25.5329Z" fill="#140153"/>
<path d="M166.537 25.5329C165.774 25.5389 165.013 25.4594 164.267 25.2958C163.6 25.1662 162.964 24.9077 162.396 24.5347C161.856 24.1805 161.425 23.6839 161.149 23.0998C160.828 22.3871 160.674 21.6103 160.7 20.829C160.683 20.0576 160.858 19.2941 161.211 18.608C161.566 17.9628 162.116 17.4472 162.783 17.1357C163.617 16.7629 164.526 16.5878 165.44 16.6241C166.023 16.6227 166.604 16.6855 167.173 16.8113C167.694 16.925 168.2 17.0966 168.683 17.3229C169.073 17.5066 169.434 17.7461 169.755 18.0341L169.905 19.993C169.519 19.7536 169.098 19.5767 168.658 19.4689C168.14 19.34 167.607 19.2772 167.074 19.2818C166.425 19.2354 165.776 19.3738 165.203 19.681C165.001 19.8173 164.84 20.0047 164.734 20.2239C164.629 20.4431 164.584 20.6864 164.604 20.9288C164.603 21.2586 164.704 21.5806 164.891 21.8521C165.097 22.1217 165.367 22.336 165.677 22.4759C165.996 22.6143 166.339 22.6864 166.687 22.6881C167.32 22.7181 167.955 22.6551 168.57 22.5009C168.732 22.4533 168.874 22.3521 168.971 22.2139C169.069 22.0757 169.116 21.9086 169.107 21.7398V16.674C169.137 16.3321 169.082 15.988 168.947 15.6724C168.812 15.3568 168.601 15.0794 168.333 14.8648C167.677 14.4552 166.91 14.2591 166.138 14.3034C165.342 14.3108 164.553 14.4543 163.806 14.7276C163.117 14.9597 162.472 15.3055 161.897 15.7507V12.1698C162.558 11.7888 163.273 11.5111 164.018 11.3463C165.07 11.085 166.151 10.9592 167.236 10.972C167.703 10.9772 168.169 11.0105 168.633 11.0718C169.152 11.152 169.662 11.2858 170.154 11.471C170.67 11.6591 171.147 11.938 171.564 12.2945C172.008 12.6727 172.362 13.146 172.599 13.6795C172.882 14.3413 173.018 15.0563 172.998 15.7757V22.2763C173.011 22.6262 172.949 22.9747 172.818 23.2993C172.687 23.6239 172.489 23.9173 172.237 24.1604C171.607 24.6919 170.851 25.0528 170.042 25.2085C168.889 25.4435 167.714 25.5523 166.537 25.5329Z" fill="#310677"/>
<path d="M71.2692 49.6263V30.1743H84.0913V33.8301H75.8467V38.4592H82.9563V42.2023H75.8467V49.6887L71.2692 49.6263Z" fill="#140153"/>
<path d="M71.2692 49.6263V30.1743H84.0913V33.8301H75.8467V38.4592H82.9563V42.2023H75.8467V49.6887L71.2692 49.6263Z" fill="#310677"/>
<path d="M92.76 50.0755C91.9219 50.0821 91.0856 49.9984 90.2654 49.8259C89.5511 49.6775 88.8703 49.3983 88.2573 49.0024C87.6776 48.6205 87.2155 48.0848 86.9227 47.4553C86.5649 46.6739 86.3981 45.8185 86.4362 44.9598C86.4188 44.1322 86.6074 43.3132 86.985 42.5767C87.365 41.8839 87.9545 41.3292 88.6689 40.9921C89.5682 40.5984 90.5441 40.4108 91.5252 40.4431C92.1502 40.4396 92.7736 40.5065 93.3836 40.6427C93.9444 40.7653 94.4886 40.9538 95.0051 41.2042C95.4239 41.393 95.811 41.6455 96.1526 41.9528L96.3273 44.0615C95.9043 43.8081 95.4461 43.6189 94.9677 43.5C94.413 43.3616 93.843 43.2945 93.2714 43.3003C92.5714 43.2494 91.8712 43.3964 91.2508 43.7246C91.0384 43.8701 90.8678 44.0688 90.7562 44.3009C90.6446 44.533 90.5958 44.7903 90.6147 45.0472C90.6143 45.4039 90.7231 45.7523 90.9265 46.0453C91.14 46.3375 91.4288 46.566 91.7622 46.7066C92.1015 46.8662 92.4724 46.9473 92.8473 46.9437C93.527 46.9778 94.208 46.9105 94.8679 46.7441C95.0433 46.6931 95.1959 46.5836 95.3003 46.4338C95.4047 46.2839 95.4546 46.1028 95.4417 45.9206V40.5678C95.4764 40.209 95.4243 39.847 95.2897 39.5126C95.1551 39.1781 94.942 38.881 94.6684 38.6463C93.9627 38.1965 93.1341 37.9784 92.2985 38.0225C91.4473 38.0275 90.6034 38.1795 89.8039 38.4717C89.0679 38.7261 88.3773 39.0968 87.7584 39.5697V35.7267C88.4718 35.3451 89.2363 35.0678 90.0284 34.9032C91.1767 34.6016 92.3586 34.4465 93.5458 34.4415C94.0467 34.4455 94.5467 34.483 95.0425 34.5538C95.6005 34.6379 96.1481 34.7801 96.6765 34.978C97.2278 35.1821 97.7387 35.482 98.1857 35.8639C98.6498 36.2894 99.0122 36.8139 99.2459 37.3986C99.5499 38.1072 99.6947 38.8739 99.67 39.6445V46.6193C99.6771 46.9949 99.6053 47.3678 99.4592 47.7138C99.3131 48.0599 99.0959 48.3713 98.8218 48.6281C98.1523 49.2069 97.3369 49.591 96.4644 49.7386C95.2461 49.9892 94.0035 50.1023 92.76 50.0755Z" fill="#140153"/>
<path d="M92.76 50.0755C91.9219 50.0821 91.0856 49.9984 90.2654 49.8259C89.5511 49.6775 88.8703 49.3983 88.2573 49.0024C87.6776 48.6205 87.2155 48.0848 86.9227 47.4553C86.5649 46.6739 86.3981 45.8185 86.4362 44.9598C86.4188 44.1322 86.6074 43.3132 86.985 42.5767C87.365 41.8839 87.9545 41.3292 88.6689 40.9921C89.5682 40.5984 90.5441 40.4108 91.5252 40.4431C92.1502 40.4396 92.7736 40.5065 93.3836 40.6427C93.9444 40.7653 94.4886 40.9538 95.0051 41.2042C95.4239 41.393 95.811 41.6455 96.1526 41.9528L96.3273 44.0615C95.9043 43.8081 95.4461 43.6189 94.9677 43.5C94.413 43.3616 93.843 43.2945 93.2714 43.3003C92.5714 43.2494 91.8712 43.3964 91.2508 43.7246C91.0384 43.8701 90.8678 44.0688 90.7562 44.3009C90.6446 44.533 90.5958 44.7903 90.6147 45.0472C90.6143 45.4039 90.7231 45.7523 90.9265 46.0453C91.14 46.3375 91.4288 46.566 91.7622 46.7066C92.1015 46.8662 92.4724 46.9473 92.8473 46.9437C93.527 46.9778 94.208 46.9105 94.8679 46.7441C95.0433 46.6931 95.1959 46.5836 95.3003 46.4338C95.4047 46.2839 95.4546 46.1028 95.4417 45.9206V40.5678C95.4764 40.209 95.4243 39.847 95.2897 39.5126C95.1551 39.1781 94.942 38.881 94.6684 38.6463C93.9627 38.1965 93.1341 37.9784 92.2985 38.0225C91.4473 38.0275 90.6034 38.1795 89.8039 38.4717C89.0679 38.7261 88.3773 39.0968 87.7584 39.5697V35.7267C88.4718 35.3451 89.2363 35.0678 90.0284 34.9032C91.1767 34.6016 92.3586 34.4465 93.5458 34.4415C94.0467 34.4455 94.5467 34.483 95.0425 34.5538C95.6005 34.6379 96.1481 34.7801 96.6765 34.978C97.2278 35.1821 97.7387 35.482 98.1857 35.8639C98.6498 36.2894 99.0122 36.8139 99.2459 37.3986C99.5499 38.1072 99.6947 38.8739 99.67 39.6445V46.6193C99.6771 46.9949 99.6053 47.3678 99.4592 47.7138C99.3131 48.0599 99.0959 48.3713 98.8218 48.6281C98.1523 49.2069 97.3369 49.591 96.4644 49.7386C95.2461 49.9892 94.0035 50.1023 92.76 50.0755Z" fill="#310677"/>
<path d="M111.108 50.0131C110.128 50.0161 109.154 49.8559 108.226 49.539C107.339 49.2454 106.524 48.7693 105.832 48.1416C105.113 47.4889 104.55 46.683 104.185 45.7834C103.775 44.7217 103.575 43.59 103.599 42.4519C103.575 41.2591 103.765 40.0716 104.16 38.9458C104.495 38.0087 105.031 37.1567 105.732 36.4504C106.396 35.784 107.202 35.2764 108.089 34.9656C109.049 34.6203 110.063 34.4512 111.083 34.4665C111.883 34.4718 112.681 34.5554 113.465 34.7161C114.21 34.8526 114.935 35.0832 115.623 35.4023V39.1455C114.997 38.8438 114.351 38.5853 113.69 38.3719C113.065 38.1724 112.412 38.0713 111.756 38.0724C110.722 38.0207 109.703 38.3441 108.887 38.9833C108.498 39.3719 108.198 39.8417 108.011 40.3593C107.823 40.8769 107.752 41.4296 107.802 41.9778C107.717 43.1556 108.057 44.3248 108.763 45.2718C109.183 45.6765 109.686 45.9854 110.238 46.1771C110.789 46.3688 111.375 46.4388 111.956 46.3823C112.648 46.3856 113.334 46.2542 113.976 45.9955C114.554 45.7803 115.113 45.5174 115.648 45.2094V48.9526C114.254 49.7052 112.691 50.0876 111.108 50.063V50.0131Z" fill="#140153"/>
<path d="M111.108 50.0131C110.128 50.0161 109.154 49.8559 108.226 49.539C107.339 49.2454 106.524 48.7693 105.832 48.1416C105.113 47.4889 104.55 46.683 104.185 45.7834C103.775 44.7217 103.575 43.59 103.599 42.4519C103.575 41.2591 103.765 40.0716 104.16 38.9458C104.495 38.0087 105.031 37.1567 105.732 36.4504C106.396 35.784 107.202 35.2764 108.089 34.9656C109.049 34.6203 110.063 34.4512 111.083 34.4665C111.883 34.4718 112.681 34.5554 113.465 34.7161C114.21 34.8526 114.935 35.0832 115.623 35.4023V39.1455C114.997 38.8438 114.351 38.5853 113.69 38.3719C113.065 38.1724 112.412 38.0713 111.756 38.0724C110.722 38.0207 109.703 38.3441 108.887 38.9833C108.498 39.3719 108.198 39.8417 108.011 40.3593C107.823 40.8769 107.752 41.4296 107.802 41.9778C107.717 43.1556 108.057 44.3248 108.763 45.2718C109.183 45.6765 109.686 45.9854 110.238 46.1771C110.789 46.3688 111.375 46.4388 111.956 46.3823C112.648 46.3856 113.334 46.2542 113.976 45.9955C114.554 45.7803 115.113 45.5174 115.648 45.2094V48.9526C114.254 49.7052 112.691 50.0876 111.108 50.063V50.0131Z" fill="#310677"/>
<path d="M125.451 50.2127C124.776 50.27 124.095 50.189 123.452 49.9745C122.809 49.7599 122.216 49.4164 121.71 48.965C121.282 48.5086 120.951 47.9705 120.737 47.383C120.523 46.7955 120.429 46.1707 120.462 45.5462V38.1972H118.492V34.9032H120.575V30.8231H124.977V34.9032H128.121V38.2221H124.977V45.0471C124.948 45.4463 125.058 45.8434 125.289 46.1701C125.424 46.3071 125.589 46.4111 125.771 46.4738C125.953 46.5366 126.146 46.5565 126.337 46.5319C126.657 46.5279 126.973 46.4688 127.273 46.3572C127.577 46.2578 127.863 46.1103 128.121 45.9205V49.6637C127.732 49.8823 127.311 50.0381 126.873 50.1254C126.404 50.2021 125.927 50.2314 125.451 50.2127Z" fill="#140153"/>
<path d="M125.451 50.2127C124.776 50.27 124.095 50.189 123.452 49.9745C122.809 49.7599 122.216 49.4164 121.71 48.965C121.282 48.5086 120.951 47.9705 120.737 47.383C120.523 46.7955 120.429 46.1707 120.462 45.5462V38.1972H118.492V34.9032H120.575V30.8231H124.977V34.9032H128.121V38.2221H124.977V45.0471C124.948 45.4463 125.058 45.8434 125.289 46.1701C125.424 46.3071 125.589 46.4111 125.771 46.4738C125.953 46.5366 126.146 46.5565 126.337 46.5319C126.657 46.5279 126.973 46.4688 127.273 46.3572C127.577 46.2578 127.863 46.1103 128.121 45.9205V49.6637C127.732 49.8823 127.311 50.0381 126.873 50.1254C126.404 50.2021 125.927 50.2314 125.451 50.2127Z" fill="#310677"/>
<path d="M138.723 50.0754C137.725 50.1496 136.724 50.0086 135.785 49.6621C134.847 49.3155 133.994 48.7714 133.284 48.0666C131.959 46.4069 131.309 44.3083 131.463 42.1898C131.463 39.4199 132.087 37.4236 133.309 36.2008C134.802 34.9016 136.748 34.2466 138.723 34.3791C140.109 34.3308 141.487 34.6176 142.739 35.2151C143.828 35.7409 144.708 36.6205 145.233 37.7105C145.841 39.1055 146.127 40.6194 146.069 42.1399C146.224 44.2709 145.544 46.3786 144.173 48.0167C143.462 48.7261 142.608 49.2765 141.669 49.6314C140.729 49.9863 139.725 50.1376 138.723 50.0754ZM138.723 46.5943C139.341 46.6216 139.951 46.4416 140.456 46.0827C140.946 45.7039 141.311 45.1866 141.504 44.5979C141.759 43.8215 141.877 43.0067 141.853 42.1898C141.887 41.3193 141.769 40.4495 141.504 39.6195C141.326 39.0499 140.95 38.563 140.444 38.247C139.92 37.9497 139.324 37.8029 138.723 37.8228C138.111 37.7972 137.504 37.9488 136.976 38.2595C136.482 38.5852 136.119 39.0761 135.954 39.6445C135.719 40.4548 135.609 41.2964 135.629 42.1399C135.55 43.2956 135.81 44.4492 136.378 45.4589C136.636 45.8354 136.989 46.1381 137.4 46.3372C137.811 46.5363 138.267 46.6249 138.723 46.5943Z" fill="#140153"/>
<path d="M138.723 50.0754C137.725 50.1496 136.724 50.0086 135.785 49.6621C134.847 49.3155 133.994 48.7714 133.284 48.0666C131.959 46.4069 131.309 44.3083 131.463 42.1898C131.463 39.4199 132.087 37.4236 133.309 36.2008C134.802 34.9016 136.748 34.2466 138.723 34.3791C140.109 34.3308 141.487 34.6176 142.739 35.2151C143.828 35.7409 144.708 36.6205 145.233 37.7105C145.841 39.1055 146.127 40.6194 146.069 42.1399C146.224 44.2709 145.544 46.3786 144.173 48.0167C143.462 48.7261 142.608 49.2765 141.669 49.6314C140.729 49.9863 139.725 50.1376 138.723 50.0754ZM138.723 46.5943C139.341 46.6216 139.951 46.4416 140.456 46.0827C140.946 45.7039 141.311 45.1866 141.504 44.5979C141.759 43.8215 141.877 43.0067 141.853 42.1898C141.887 41.3193 141.769 40.4495 141.504 39.6195C141.326 39.0499 140.95 38.563 140.444 38.247C139.92 37.9497 139.324 37.8029 138.723 37.8228C138.111 37.7972 137.504 37.9488 136.976 38.2595C136.482 38.5852 136.119 39.0761 135.954 39.6445C135.719 40.4548 135.609 41.2964 135.629 42.1399C135.55 43.2956 135.81 44.4492 136.378 45.4589C136.636 45.8354 136.989 46.1381 137.4 46.3372C137.811 46.5363 138.267 46.6249 138.723 46.5943Z" fill="#310677"/>
<path d="M149.961 49.6262V36.4253C150.392 36.0932 150.866 35.8205 151.37 35.6143C152.126 35.2854 152.906 35.0143 153.703 34.8033C154.559 34.56 155.444 34.4382 156.334 34.4414C157.038 34.4207 157.742 34.4877 158.43 34.6411C158.847 34.7377 159.241 34.9158 159.59 35.1651V38.3468C159.179 38.2565 158.762 38.1981 158.342 38.1721C157.856 38.1721 157.345 38.1097 156.821 38.0972C156.297 38.0848 155.798 38.0972 155.324 38.0972C154.906 38.1094 154.489 38.1511 154.077 38.222V49.6262H149.961Z" fill="#140153"/>
<path d="M149.961 49.6262V36.4253C150.392 36.0932 150.866 35.8205 151.37 35.6143C152.126 35.2854 152.906 35.0143 153.703 34.8033C154.559 34.56 155.444 34.4382 156.334 34.4414C157.038 34.4207 157.742 34.4877 158.43 34.6411C158.847 34.7377 159.241 34.9158 159.59 35.1651V38.3468C159.179 38.2565 158.762 38.1981 158.342 38.1721C157.856 38.1721 157.345 38.1097 156.821 38.0972C156.297 38.0848 155.798 38.0972 155.324 38.0972C154.906 38.1094 154.489 38.1511 154.077 38.222V49.6262H149.961Z" fill="#310677"/>
<path d="M12.8835 4.42013C18.2837 0.961875 24.7067 -0.53768 31.0793 0.172055C37.4519 0.881789 43.3879 3.75782 47.8955 8.31953C52.4031 12.8812 55.2091 18.8523 55.8447 25.2349C56.4802 31.6174 54.9068 38.0249 51.3874 43.3865C50.6362 39.9016 49.5199 36.5057 48.0571 33.255C46.7873 30.4484 45.2722 27.7595 43.5294 25.2196C41.9618 22.9376 40.2142 20.7846 38.3033 18.7814C35.8664 16.2421 33.1794 13.9555 30.2832 11.9564C28.8398 10.9595 27.3452 10.0391 25.8054 9.1989C21.685 7.13999 17.3519 5.53755 12.8835 4.42013ZM41.2594 44.3472C40.9155 42.9785 40.4992 41.6291 40.0121 40.3046C38.8693 37.1507 37.349 34.1468 35.4844 31.3584C33.9506 29.0748 32.1959 26.9476 30.2458 25.0075C28.2957 26.9476 26.541 29.0748 25.0072 31.3584C23.1445 34.1415 21.6282 37.1416 20.492 40.2921C20.018 41.6147 19.6064 42.9622 19.2447 44.3472C18.4349 47.5666 18.0161 50.872 17.9974 54.1917C21.9666 55.6963 26.225 56.2816 30.4527 55.9034C34.6805 55.5252 38.7675 54.1934 42.4069 52.0082C42.2689 49.4238 41.8846 46.8585 41.2594 44.3472ZM8.3808 47.9781C8.53048 46.7304 8.73004 45.4826 8.95455 44.3472C10.315 37.4904 13.0565 30.9825 17.012 25.2196C18.584 22.9373 20.3358 20.7844 22.2507 18.7814C16.8554 15.486 10.7989 13.4238 4.5142 12.7424C0.998282 18.1609 -0.537399 24.6286 0.16725 31.0499C0.871899 37.4712 3.77356 43.4516 8.3808 47.9781Z" fill="url(#paint0_linear_2420_25)"/>
</g>
<defs>
<linearGradient id="paint0_linear_2420_25" x1="54.568" y1="43.349" x2="6.25188" y2="15.0403" gradientUnits="userSpaceOnUse">
<stop stop-color="#140153"/>
<stop offset="0.47" stop-color="#36196C"/>
<stop offset="1" stop-color="#61388D"/>
</linearGradient>
<clipPath id="clip0_2420_25">
<rect width="173" height="56" fill="white"/>
</clipPath>
</defs>
</svg>
