<svg width="368" height="56" viewBox="0 0 368 56" fill="none" xmlns="http://www.w3.org/2000/svg">
<g clip-path="url(#clip0_2420_2)">
<path d="M85.7161 42.25V16.5705H91.9531V37.3605H103.118V42.25H85.7161ZM114.387 42.8275C113.206 42.8275 112.089 42.712 111.037 42.481C110.01 42.2757 109.099 41.9292 108.304 41.4415C107.534 40.9282 106.93 40.248 106.494 39.401C106.058 38.5283 105.84 37.4503 105.84 36.167C105.84 34.9607 106.083 33.9083 106.571 33.01C107.084 32.1117 107.854 31.4187 108.881 30.931C109.908 30.4433 111.204 30.1995 112.77 30.1995C113.642 30.1995 114.489 30.2893 115.311 30.469C116.132 30.6487 116.863 30.8925 117.505 31.2005C118.172 31.5085 118.699 31.8422 119.084 32.2015L119.315 34.9735C118.801 34.6655 118.185 34.4217 117.467 34.242C116.748 34.0623 115.978 33.9725 115.157 33.9725C113.899 33.9725 112.975 34.165 112.385 34.55C111.82 34.9093 111.538 35.4868 111.538 36.2825C111.538 36.7702 111.679 37.2065 111.961 37.5915C112.243 37.9765 112.616 38.2717 113.078 38.477C113.565 38.6823 114.066 38.785 114.579 38.785C115.888 38.785 116.799 38.6952 117.313 38.5155C117.852 38.3358 118.121 37.9765 118.121 37.4375V30.2765C118.121 29.0958 117.736 28.2488 116.966 27.7355C116.222 27.1965 115.157 26.927 113.771 26.927C112.641 26.927 111.499 27.1323 110.344 27.543C109.215 27.928 108.291 28.4028 107.572 28.9675V23.8855C108.239 23.4748 109.266 23.0898 110.652 22.7305C112.064 22.3712 113.642 22.1915 115.388 22.1915C116.004 22.1915 116.684 22.2428 117.428 22.3455C118.172 22.4482 118.917 22.6407 119.661 22.923C120.405 23.1797 121.086 23.5647 121.702 24.078C122.343 24.5913 122.857 25.2458 123.242 26.0415C123.627 26.8372 123.819 27.8253 123.819 29.006L123.781 38.2075C123.781 39.3112 123.408 40.2095 122.664 40.9025C121.92 41.5698 120.842 42.0575 119.43 42.3655C118.044 42.6735 116.363 42.8275 114.387 42.8275ZM147.006 29.16V42.25H141.27V30.315C141.27 29.8273 141.193 29.3782 141.039 28.9675C140.91 28.5568 140.705 28.2103 140.423 27.928C140.14 27.62 139.755 27.389 139.268 27.235C138.78 27.0553 138.19 26.9655 137.497 26.9655C136.906 26.9655 136.355 27.0425 135.841 27.1965C135.354 27.3248 134.956 27.466 134.648 27.62V42.25H128.911V24.4245C129.399 24.1678 130.041 23.9112 130.836 23.6545C131.632 23.3722 132.505 23.1283 133.454 22.923C134.404 22.7177 135.354 22.5508 136.303 22.4225C137.279 22.2942 138.177 22.23 138.998 22.23C140.744 22.23 142.207 22.461 143.387 22.923C144.594 23.3593 145.492 24.078 146.082 25.079C146.698 26.08 147.006 27.4403 147.006 29.16ZM141.116 25.7335C141.911 25.0405 142.874 24.4373 144.003 23.924C145.133 23.385 146.326 22.9743 147.584 22.692C148.841 22.384 150.009 22.23 151.087 22.23C152.833 22.23 154.296 22.461 155.476 22.923C156.683 23.3593 157.581 24.078 158.171 25.079C158.787 26.08 159.095 27.4403 159.095 29.16V42.25H153.359V30.315C153.359 29.8273 153.282 29.3782 153.128 28.9675C152.999 28.5568 152.794 28.2103 152.512 27.928C152.229 27.62 151.844 27.389 151.357 27.235C150.869 27.0553 150.279 26.9655 149.586 26.9655C148.995 26.9655 148.444 27.0553 147.93 27.235C147.443 27.389 147.045 27.5943 146.737 27.851L141.116 25.7335ZM173.11 42.8275C172.032 42.8275 170.954 42.7505 169.876 42.5965C168.824 42.4682 167.861 42.2243 166.988 41.865C166.141 41.48 165.461 40.9667 164.948 40.325C164.435 39.6577 164.178 38.7978 164.178 37.7455V15.5695H169.799V26.1955L168.721 24.386C169.183 23.847 169.773 23.4235 170.492 23.1155C171.211 22.7818 171.942 22.5508 172.686 22.4225C173.431 22.2942 174.047 22.23 174.534 22.23C177.409 22.23 179.591 23.1027 181.079 24.848C182.594 26.5677 183.351 29.0958 183.351 32.4325C183.351 34.3832 183.094 36.0258 182.581 37.3605C182.068 38.6952 181.349 39.7603 180.425 40.556C179.501 41.3517 178.423 41.9292 177.191 42.2885C175.959 42.6478 174.599 42.8275 173.11 42.8275ZM173.033 38.0535C174.162 38.0535 175.061 37.8353 175.728 37.399C176.395 36.937 176.87 36.3082 177.152 35.5125C177.46 34.7168 177.614 33.8057 177.614 32.779C177.614 31.316 177.422 30.1482 177.037 29.2755C176.652 28.4028 176.126 27.774 175.458 27.389C174.791 27.004 174.021 26.8115 173.148 26.8115C172.635 26.8115 172.07 26.8757 171.454 27.004C170.838 27.1323 170.287 27.3377 169.799 27.62V36.244C169.799 36.706 169.94 37.0653 170.222 37.322C170.505 37.5787 170.89 37.7712 171.377 37.8995C171.891 38.0022 172.443 38.0535 173.033 38.0535ZM196.617 42.8275C195.103 42.8275 193.704 42.6607 192.421 42.327C191.163 41.9933 190.072 41.4415 189.148 40.6715C188.224 39.8758 187.493 38.7978 186.954 37.4375C186.441 36.0772 186.184 34.3832 186.184 32.3555C186.184 29.1985 186.954 26.7088 188.494 24.8865C190.06 23.0642 192.395 22.153 195.501 22.153C195.912 22.153 196.451 22.1915 197.118 22.2685C197.785 22.3198 198.478 22.4738 199.197 22.7305C199.916 22.9872 200.557 23.4235 201.122 24.0395L199.967 25.8105V14.761H205.665V37.168C205.665 38.1177 205.408 38.9518 204.895 39.6705C204.382 40.3635 203.689 40.941 202.816 41.403C201.969 41.865 201.006 42.2115 199.928 42.4425C198.85 42.6992 197.747 42.8275 196.617 42.8275ZM196.848 38.015C197.772 38.015 198.517 37.8995 199.081 37.6685C199.672 37.4118 199.967 37.0397 199.967 36.552V27.5815C199.505 27.3248 199.004 27.1323 198.465 27.004C197.952 26.85 197.452 26.773 196.964 26.773C195.886 26.773 194.975 26.9527 194.23 27.312C193.486 27.6713 192.921 28.2745 192.536 29.1215C192.177 29.9685 191.997 31.1107 191.997 32.548C191.997 33.6773 192.151 34.6527 192.459 35.474C192.767 36.2697 193.268 36.8985 193.961 37.3605C194.68 37.7968 195.642 38.015 196.848 38.015ZM218.269 42.8275C217.088 42.8275 215.972 42.712 214.919 42.481C213.893 42.2757 212.982 41.9292 212.186 41.4415C211.416 40.9282 210.813 40.248 210.376 39.401C209.94 38.5283 209.722 37.4503 209.722 36.167C209.722 34.9607 209.966 33.9083 210.453 33.01C210.967 32.1117 211.737 31.4187 212.763 30.931C213.79 30.4433 215.086 30.1995 216.652 30.1995C217.525 30.1995 218.372 30.2893 219.193 30.469C220.014 30.6487 220.746 30.8925 221.387 31.2005C222.055 31.5085 222.581 31.8422 222.966 32.2015L223.197 34.9735C222.684 34.6655 222.068 34.4217 221.349 34.242C220.63 34.0623 219.86 33.9725 219.039 33.9725C217.781 33.9725 216.857 34.165 216.267 34.55C215.702 34.9093 215.42 35.4868 215.42 36.2825C215.42 36.7702 215.561 37.2065 215.843 37.5915C216.126 37.9765 216.498 38.2717 216.96 38.477C217.448 38.6823 217.948 38.785 218.461 38.785C219.77 38.785 220.682 38.6952 221.195 38.5155C221.734 38.3358 222.003 37.9765 222.003 37.4375V30.2765C222.003 29.0958 221.618 28.2488 220.848 27.7355C220.104 27.1965 219.039 26.927 217.653 26.927C216.524 26.927 215.381 27.1323 214.226 27.543C213.097 27.928 212.173 28.4028 211.454 28.9675V23.8855C212.122 23.4748 213.148 23.0898 214.534 22.7305C215.946 22.3712 217.525 22.1915 219.27 22.1915C219.886 22.1915 220.566 22.2428 221.31 22.3455C222.055 22.4482 222.799 22.6407 223.543 22.923C224.288 23.1797 224.968 23.5647 225.584 24.078C226.226 24.5913 226.739 25.2458 227.124 26.0415C227.509 26.8372 227.701 27.8253 227.701 29.006L227.663 38.2075C227.663 39.3112 227.291 40.2095 226.546 40.9025C225.802 41.5698 224.724 42.0575 223.312 42.3655C221.926 42.6735 220.245 42.8275 218.269 42.8275ZM243.626 42.25V16.5705H261.105V21.383H249.863V27.5045H259.565V32.394H249.863V42.25H243.626ZM271.545 42.8275C270.364 42.8275 269.248 42.712 268.195 42.481C267.169 42.2757 266.257 41.9292 265.462 41.4415C264.692 40.9282 264.089 40.248 263.652 39.401C263.216 38.5283 262.998 37.4503 262.998 36.167C262.998 34.9607 263.242 33.9083 263.729 33.01C264.243 32.1117 265.013 31.4187 266.039 30.931C267.066 30.4433 268.362 30.1995 269.928 30.1995C270.8 30.1995 271.647 30.2893 272.469 30.469C273.29 30.6487 274.022 30.8925 274.663 31.2005C275.331 31.5085 275.857 31.8422 276.242 32.2015L276.473 34.9735C275.959 34.6655 275.343 34.4217 274.625 34.242C273.906 34.0623 273.136 33.9725 272.315 33.9725C271.057 33.9725 270.133 34.165 269.543 34.55C268.978 34.9093 268.696 35.4868 268.696 36.2825C268.696 36.7702 268.837 37.2065 269.119 37.5915C269.402 37.9765 269.774 38.2717 270.236 38.477C270.723 38.6823 271.224 38.785 271.737 38.785C273.046 38.785 273.957 38.6952 274.471 38.5155C275.01 38.3358 275.279 37.9765 275.279 37.4375V30.2765C275.279 29.0958 274.894 28.2488 274.124 27.7355C273.38 27.1965 272.315 26.927 270.929 26.927C269.799 26.927 268.657 27.1323 267.502 27.543C266.373 27.928 265.449 28.4028 264.73 28.9675V23.8855C265.398 23.4748 266.424 23.0898 267.81 22.7305C269.222 22.3712 270.8 22.1915 272.546 22.1915C273.162 22.1915 273.842 22.2428 274.586 22.3455C275.331 22.4482 276.075 22.6407 276.819 22.923C277.564 23.1797 278.244 23.5647 278.86 24.078C279.501 24.5913 280.015 25.2458 280.4 26.0415C280.785 26.8372 280.977 27.8253 280.977 29.006L280.939 38.2075C280.939 39.3112 280.567 40.2095 279.822 40.9025C279.078 41.5698 278 42.0575 276.588 42.3655C275.202 42.6735 273.521 42.8275 271.545 42.8275ZM295.194 42.7505C293.808 42.7505 292.499 42.5452 291.267 42.1345C290.035 41.7238 288.944 41.1078 287.995 40.2865C287.045 39.4652 286.301 38.4257 285.762 37.168C285.223 35.9103 284.953 34.4473 284.953 32.779C284.953 31.008 285.21 29.468 285.723 28.159C286.236 26.8243 286.942 25.7207 287.841 24.848C288.765 23.9753 289.843 23.3208 291.075 22.8845C292.307 22.4482 293.667 22.23 295.156 22.23C296.208 22.23 297.286 22.3455 298.39 22.5765C299.519 22.7818 300.507 23.077 301.354 23.462V28.39C300.456 27.9793 299.57 27.6457 298.698 27.389C297.851 27.1067 296.978 26.9655 296.08 26.9655C294.463 26.9655 293.154 27.3762 292.153 28.1975C291.177 28.9932 290.69 30.3022 290.69 32.1245C290.69 34.0495 291.126 35.4997 291.999 36.475C292.871 37.4503 294.321 37.938 296.349 37.938C297.299 37.938 298.21 37.7712 299.083 37.4375C299.981 37.1038 300.751 36.7573 301.393 36.398V41.2875C300.494 41.7495 299.557 42.1088 298.582 42.3655C297.607 42.6222 296.477 42.7505 295.194 42.7505ZM313.364 43.02C311.106 43.02 309.424 42.4938 308.321 41.4415C307.217 40.3635 306.665 38.8492 306.665 36.8985V27.158H303.816V22.769H306.665V17.4175H312.671V22.769H316.945V27.158H312.671V36.167C312.671 36.8343 312.812 37.3348 313.095 37.6685C313.377 37.9765 313.852 38.1305 314.519 38.1305C314.904 38.1305 315.328 38.0535 315.79 37.8995C316.252 37.7455 316.637 37.553 316.945 37.322V42.25C316.406 42.5323 315.815 42.7248 315.174 42.8275C314.558 42.9558 313.955 43.02 313.364 43.02ZM330.077 42.8275C326.791 42.8275 324.314 41.9548 322.646 40.2095C321.003 38.4385 320.182 35.8462 320.182 32.4325C320.182 28.7622 321.016 26.1313 322.685 24.54C324.379 22.923 326.843 22.1145 330.077 22.1145C332.258 22.1145 334.081 22.4867 335.544 23.231C337.032 23.9497 338.149 25.0662 338.893 26.5805C339.663 28.0948 340.048 30.0455 340.048 32.4325C340.048 35.8462 339.188 38.4385 337.469 40.2095C335.749 41.9548 333.285 42.8275 330.077 42.8275ZM330.077 38.246C331.026 38.246 331.809 38.0278 332.425 37.5915C333.067 37.1295 333.542 36.475 333.85 35.628C334.183 34.7553 334.35 33.6902 334.35 32.4325C334.35 30.9952 334.183 29.8658 333.85 29.0445C333.542 28.1975 333.067 27.5943 332.425 27.235C331.783 26.85 331.001 26.6575 330.077 26.6575C329.101 26.6575 328.306 26.85 327.69 27.235C327.074 27.62 326.612 28.236 326.304 29.083C326.021 29.9043 325.88 31.0208 325.88 32.4325C325.88 34.3832 326.214 35.8462 326.881 36.8215C327.574 37.7712 328.639 38.246 330.077 38.246ZM344.007 42.25V24.8095C344.367 24.5015 345.008 24.155 345.932 23.77C346.856 23.3593 347.909 23 349.089 22.692C350.296 22.3583 351.502 22.1915 352.708 22.1915C353.915 22.1915 354.864 22.2813 355.557 22.461C356.25 22.6407 356.777 22.8717 357.136 23.154V27.3505C356.7 27.2478 356.148 27.1708 355.48 27.1195C354.813 27.0682 354.12 27.0425 353.401 27.0425C352.683 27.0168 352.003 27.0168 351.361 27.0425C350.719 27.0682 350.18 27.1195 349.744 27.1965V42.25H344.007Z" fill="#310677"/>
<path d="M23.8835 4.42013C29.2837 0.961875 35.7067 -0.53768 42.0793 0.172055C48.4519 0.881789 54.3879 3.75782 58.8955 8.31953C63.4031 12.8812 66.2091 18.8523 66.8447 25.2349C67.4802 31.6174 65.9068 38.0249 62.3874 43.3865C61.6362 39.9016 60.5199 36.5057 59.0571 33.255C57.7873 30.4484 56.2722 27.7595 54.5294 25.2196C52.9618 22.9376 51.2142 20.7846 49.3033 18.7814C46.8664 16.2421 44.1794 13.9555 41.2832 11.9564C39.8398 10.9595 38.3452 10.0391 36.8054 9.1989C32.685 7.13999 28.3519 5.53755 23.8835 4.42013ZM52.2594 44.3472C51.9155 42.9785 51.4992 41.6291 51.0121 40.3046C49.8693 37.1507 48.349 34.1468 46.4844 31.3584C44.9506 29.0748 43.1959 26.9476 41.2458 25.0075C39.2957 26.9476 37.541 29.0748 36.0072 31.3584C34.1445 34.1415 32.6282 37.1416 31.492 40.2921C31.018 41.6147 30.6064 42.9622 30.2447 44.3472C29.4349 47.5666 29.0161 50.872 28.9974 54.1917C32.9666 55.6963 37.225 56.2816 41.4527 55.9034C45.6805 55.5252 49.7675 54.1934 53.4069 52.0082C53.2689 49.4238 52.8846 46.8585 52.2594 44.3472ZM19.3808 47.9781C19.5305 46.7304 19.73 45.4826 19.9546 44.3472C21.315 37.4904 24.0565 30.9825 28.012 25.2196C29.584 22.9373 31.3358 20.7844 33.2507 18.7814C27.8554 15.486 21.7989 13.4238 15.5142 12.7424C11.9983 18.1609 10.4626 24.6286 11.1673 31.0499C11.8719 37.4712 14.7736 43.4516 19.3808 47.9781Z" fill="url(#paint0_linear_2420_2)"/>
</g>
<defs>
<linearGradient id="paint0_linear_2420_2" x1="65.568" y1="43.349" x2="17.2519" y2="15.0403" gradientUnits="userSpaceOnUse">
<stop stop-color="#140153"/>
<stop offset="0.47" stop-color="#36196C"/>
<stop offset="1" stop-color="#61388D"/>
</linearGradient>
<clipPath id="clip0_2420_2">
<rect width="368" height="56" fill="white"/>
</clipPath>
</defs>
</svg>
